<?xml version="1.0" standalone="no"?>
<!DOCTYPE svg PUBLIC "-//W3C//DTD SVG 20010904//EN"
 "http://www.w3.org/TR/2001/REC-SVG-20010904/DTD/svg10.dtd">
<svg version="1.0" xmlns="http://www.w3.org/2000/svg"
 width="1000.000000pt" height="1000.000000pt" viewBox="0 0 1000.000000 1000.000000"
 preserveAspectRatio="xMidYMid meet">

<g transform="translate(0.000000,1000.000000) scale(0.100000,-0.100000)"
fill="RGB(39,39,58)" stroke="none">
<path d="M3138 8872 c-65 -23 -82 -34 -108 -68 -42 -58 -56 -107 -52 -189 l3
-70 364 -390 363 -390 -852 -5 c-956 -6 -876 0 -1093 -87 -338 -135 -601 -401
-743 -753 -48 -118 -51 -131 -81 -359 l-31 -236 1 -1590 c0 -875 -3 -1635 -7
-1690 -11 -155 7 -260 80 -480 124 -374 285 -603 557 -799 114 -83 260 -146
386 -169 50 -9 158 -19 240 -22 83 -3 196 -8 253 -11 l102 -7 1 -41 c1 -60 18
-104 73 -181 60 -87 146 -152 249 -190 70 -25 86 -27 160 -22 124 10 236 60
304 137 38 42 89 141 117 225 l26 81 1438 -3 c790 -2 1505 -6 1588 -9 l151 -6
22 -100 23 -100 82 -83 c55 -55 103 -93 145 -114 57 -29 71 -32 159 -32 94 -1
98 0 188 45 75 37 104 59 154 114 76 82 120 171 120 242 l0 50 58 0 c31 0 183
10 337 22 l280 22 137 79 c89 51 181 115 261 182 118 98 129 110 224 253 162
243 214 366 252 597 l26 160 -12 1830 c-8 1343 -15 1847 -24 1895 -67 364
-266 721 -504 904 -117 90 -142 105 -285 163 -221 91 -160 86 -1110 84 l-835
-3 25 28 c89 100 574 604 581 604 5 0 38 34 74 77 l65 76 0 69 c0 88 -21 132
-108 221 l-66 67 -72 0 c-39 0 -96 -5 -126 -11 -63 -13 -23 25 -826 -792
l-332 -339 -528 8 -527 7 -535 548 c-527 539 -536 548 -591 563 -77 22 -131
19 -221 -12z m4638 -1921 c98 -25 232 -116 298 -202 44 -57 53 -77 81 -184
l31 -120 -8 -1785 c-7 -1589 -10 -1795 -24 -1875 -22 -122 -64 -196 -161 -283
-64 -58 -84 -70 -149 -89 l-75 -22 -2762 -2 -2763 -1 -110 55 c-130 65 -161
95 -226 222 -85 165 -78 -11 -78 2025 l0 1813 27 89 c22 74 35 99 83 155 81
96 167 142 325 176 l120 26 2590 9 c1425 5 2622 9 2660 10 41 1 99 -6 141 -17z"/>
<path d="M3213 5612 c-679 -134 -843 -169 -843 -182 0 -15 111 -622 115 -628
3 -3 1717 336 1720 340 1 2 -26 146 -59 321 -48 253 -64 317 -76 316 -8 -1
-394 -76 -857 -167z"/>
<path d="M5897 5468 c-32 -167 -57 -310 -57 -318 0 -13 164 -48 833 -178 457
-89 839 -162 847 -162 13 0 26 59 68 303 29 166 52 309 52 317 0 13 -163 48
-827 178 -456 89 -835 162 -843 162 -13 0 -28 -61 -73 -302z"/>
<path d="M4875 3899 c-126 -191 -199 -271 -256 -283 -87 -17 -131 -8 -216 44
-53 33 -106 76 -150 125 l-69 76 -127 -92 c-70 -50 -127 -95 -127 -100 0 -6
29 -48 64 -95 126 -167 342 -291 512 -295 102 -2 139 5 254 49 82 31 154 74
256 153 7 6 33 -13 73 -51 115 -111 200 -143 381 -143 177 -1 267 33 386 142
34 31 89 80 123 110 37 32 72 73 87 103 14 27 24 51 22 52 -28 21 -258 156
-264 156 -5 0 -35 -31 -67 -70 -56 -69 -95 -99 -192 -149 -60 -31 -145 -32
-203 -2 -58 31 -155 138 -217 240 -62 104 -136 211 -144 211 -4 0 -60 -82
-126 -181z"/>
</g>
</svg>
